<?xml version="1.0" encoding="UTF-8" standalone="no"?>
<svg
   xmlns:dc="http://purl.org/dc/elements/1.1/"
   xmlns:cc="http://creativecommons.org/ns#"
   xmlns:rdf="http://www.w3.org/1999/02/22-rdf-syntax-ns#"
   xmlns:svg="http://www.w3.org/2000/svg"
   xmlns="http://www.w3.org/2000/svg"
   xmlns:sodipodi="http://sodipodi.sourceforge.net/DTD/sodipodi-0.dtd"
   xmlns:inkscape="http://www.inkscape.org/namespaces/inkscape"
   id="b8061065-12b5-4195-bf1a-bde27c21cc1a"
   data-name="Capa 1"
   viewBox="0 0 434.01 374.43"
   version="1.1"
   sodipodi:docname="address.svg"
   inkscape:version="1.0.2-2 (e86c870879, 2021-01-15)">
  <metadata
     id="metadata1439">
    <rdf:RDF>
      <cc:Work
         rdf:about="">
        <dc:format>image/svg+xml</dc:format>
        <dc:type
           rdf:resource="http://purl.org/dc/dcmitype/StillImage" />
      </cc:Work>
    </rdf:RDF>
  </metadata>
  <defs
     id="defs1437" />
  <sodipodi:namedview
     pagecolor="#ffffff"
     bordercolor="#666666"
     borderopacity="1"
     objecttolerance="10"
     gridtolerance="10"
     guidetolerance="10"
     inkscape:pageopacity="0"
     inkscape:pageshadow="2"
     inkscape:window-width="1024"
     inkscape:window-height="745"
     id="namedview1435"
     showgrid="false"
     inkscape:zoom="0.82106903"
     inkscape:cx="351.47846"
     inkscape:cy="187.215"
     inkscape:window-x="-8"
     inkscape:window-y="-8"
     inkscape:window-maximized="1"
     inkscape:current-layer="b8061065-12b5-4195-bf1a-bde27c21cc1a" />
  <title
     id="title1430">Sin título-2</title>
  <path
     d="m 218.10188,85.032006 c -32.45208,0 -58.8533,28.211014 -58.8533,62.887654 0,34.67666 26.40122,62.88767 58.8533,62.88767 32.45208,0 58.85331,-28.21101 58.85331,-62.88767 0,-34.67664 -26.40123,-62.887654 -58.85331,-62.887654 z m 0,104.812774 c -21.63472,0 -39.23554,-18.80735 -39.23554,-41.92512 0,-23.11776 17.60082,-41.9251 39.23554,-41.9251 21.63472,0 39.23554,18.80734 39.23554,41.9251 0,23.11777 -17.60082,41.92512 -39.23554,41.92512 z m 0,-167.700442 c -65.00776,0 -117.70661,56.311318 -117.70661,125.775322 0,50.7117 16.5341,64.87322 105.60981,202.85858 5.84487,9.02176 18.34813,9.02307 24.19422,0 89.0751,-137.98536 105.60919,-152.14688 105.60919,-202.85858 0,-69.464004 -52.69884,-125.775322 -117.70661,-125.775322 z m 0,310.462642 C 132.70635,200.64573 120.01304,190.16839 120.01304,147.91966 c 0,-27.99679 10.20308,-54.317254 28.72961,-74.113754 18.52652,-19.796519 43.15848,-30.699013 69.35923,-30.699013 26.20076,0 50.83271,10.902494 69.35924,30.699013 18.52652,19.7965 28.7296,46.116964 28.7296,74.113754 0,42.2461 -12.68533,52.71428 -98.08884,184.68732 z"
     id="path1432"
     style="stroke-width:0.63372" />
</svg>
