<svg id="aafea7ae-66a9-498d-8779-a3898f211124" data-name="Redes" xmlns="http://www.w3.org/2000/svg" viewBox="0 0 1417.27 1417.32"><defs><style>.ec62e6e7-38c9-48c5-8fed-8539c834fcae{fill:#b4afad;}</style></defs><title>fb</title><g id="a33a8cad-4421-4f0d-91e8-086d29f0ed70" data-name="face"><path class="ec62e6e7-38c9-48c5-8fed-8539c834fcae" d="M1417.3,708.35c0,391.85-317.64,709.1-709.85,709C316.35,1417.2-.21,1098.82,0,705.86.26,317.18,319.13-.15,709.31,0S1417.3,318,1417.3,708.35ZM777.52,965.63c0-68,.33-135.94-.32-203.91-.11-12.1,3.72-14.5,14.87-14.4,55.72.53,111.46-.1,167.18.56,11.53.13,14.07-3.42,13.94-14.27-.57-46-.68-92,0-138.05.19-12.36-2.41-16.67-15.81-16.49-58.67.78-117.36.3-176,.35-6.62,0-12.27.61-12-9.39.69-30.78-.7-61.59,3.48-92.26,6.29-46.06,26.07-68.48,71.45-78.3,44-9.53,88.82-9.62,133.54-9.33,10.3.07,12.84-3.4,12.75-13-.41-43.48-.67-87,0-130.45.19-11.69-3.83-14.19-14.5-13.95-48.53,1.1-97.11.73-145.62,2.46-37.89,1.35-75.68,4.83-112.7,14.35-51.59,13.27-86.19,44.28-102.18,95.41-7.32,23.42-11.2,47.52-13.86,71.85-5.81,53-5.26,106.18-4.61,159.35.13,9.87-2.5,12.91-12.63,12.8-47.28-.53-94.57.14-141.84-.51-11.81-.16-16,2.52-15.82,15.13q1.1,69.64,0,139.31c-.17,11.64,3.92,14.18,14.53,14.08,46.86-.44,93.73.23,140.58-.52,12.28-.2,15.36,3.15,15.32,15.38-.46,132.56-.16,265.12-.5,397.68,0,11.21,2.42,15.4,14.56,15.24q75.35-1,150.71,0c11.72.14,15.93-2.43,15.8-15.19C777.14,1101.57,777.5,1033.6,777.52,965.63Z" transform="translate(-0.02 0)"/></g></svg>