<svg id="ec9419ba-bf01-4e8f-a128-6895a03b4e8f" data-name="Redes" xmlns="http://www.w3.org/2000/svg" viewBox="0 0 1418.36 1417.32"><defs><style>.e7cf93e1-3952-4eb1-9e28-f3b72c300bf2{fill:#9f9894;}.bd8c86a1-fee6-4298-b386-4aa7e35c6269{fill:#b4afad;}</style></defs><title>insta</title><g id="fc9a5dff-efb2-42a9-a4a8-c61c85be2049" data-name="Instagram"><path class="e7cf93e1-3952-4eb1-9e28-f3b72c300bf2" d="M-.52,770.72V646.89c1.83-8,4.38-15.93,5.38-24C54.94,218,430-59.3,832.58,10.86c367.55,64.06,623.51,406.38,580.56,776.44-45.57,392.64-393.2,673-784.7,624.6C336.61,1375.84,141.2,1211,37,937,16.64,883.41,10.88,826.4-.52,770.72ZM702.73,1104c82.52,0,165.16,2.68,247.54-.75,82-3.41,140.08-64.69,140.76-146.29q2-237.75-.17-475.53c-.84-82.63-64.54-146.93-146.82-147.8q-239.16-2.5-478.35,0c-78.27.84-144.17,63.54-144.84,137.2q-2.27,249,0,498c.6,68.25,60.77,128.93,128.76,133.91C533.88,1109,618.36,1103.36,702.73,1104Z" transform="translate(0.52 0)"/><path class="bd8c86a1-fee6-4298-b386-4aa7e35c6269" d="M703.39,1029.53c-75,0-150,.26-225-.08-55.3-.25-83.66-28.1-83.89-82.8-.4-92.81.64-185.65-.66-278.45-.32-23.1,7.63-29.16,29-27.54s43.14,1.08,64.66.14c17-.74,19.41,3.62,15.43,20.82C480.56,758,510.24,840,584.19,892.28c68.59,48.5,166.87,50.44,235.69,4.65,77.18-51.35,111.77-138,88.82-230.39-5.72-23-1.32-27.44,20.39-25.88,22.39,1.61,45,1.1,67.47.11,15-.66,19.36,5.52,19.3,19.65-.41,98.44.58,196.9-.74,295.33-.6,44.91-30.44,73-75.47,73.44-78.74.79-157.51.22-236.26.22Z" transform="translate(0.52 0)"/><path class="e7cf93e1-3952-4eb1-9e28-f3b72c300bf2" d="M705.21,584.44c75.7,0,135.27,60,134.7,135.83-.57,75.13-59,134-133.42,134.32-75.59.38-136.42-59.34-137-134.51C568.9,646,630.5,584.46,705.21,584.44Z" transform="translate(0.52 0)"/><path class="e7cf93e1-3952-4eb1-9e28-f3b72c300bf2" d="M936.09,552.94c-64.4.29-64.4.29-64.48-65.6-.09-64.26-.09-64.26,63.14-65,66.52-.76,66.52-.76,66.52,64.84S1001.27,552.65,936.09,552.94Z" transform="translate(0.52 0)"/></g></svg>