<?xml version="1.0" encoding="UTF-8" standalone="no"?>
<svg
   xmlns:dc="http://purl.org/dc/elements/1.1/"
   xmlns:cc="http://creativecommons.org/ns#"
   xmlns:rdf="http://www.w3.org/1999/02/22-rdf-syntax-ns#"
   xmlns:svg="http://www.w3.org/2000/svg"
   xmlns="http://www.w3.org/2000/svg"
   xmlns:sodipodi="http://sodipodi.sourceforge.net/DTD/sodipodi-0.dtd"
   xmlns:inkscape="http://www.inkscape.org/namespaces/inkscape"
   sodipodi:docname="logo-footer.svg"
   viewBox="0 0 492.26666 404"
   height="404"
   width="492.26666"
   xml:space="preserve"
   id="svg10"
   version="1.1"
   inkscape:version="1.0.2-2 (e86c870879, 2021-01-15)"><metadata
     id="metadata16"><rdf:RDF><cc:Work
         rdf:about=""><dc:format>image/svg+xml</dc:format><dc:type
           rdf:resource="http://purl.org/dc/dcmitype/StillImage" /><dc:title></dc:title></cc:Work></rdf:RDF></metadata><defs
     id="defs14"><clipPath
       clipPathUnits="userSpaceOnUse"
       id="clipPath26"><path
         d="M 0,303 H 369.2 V 0 H 0 Z"
         id="path24" /></clipPath></defs><sodipodi:namedview
     pagecolor="#ffffff"
     bordercolor="#666666"
     borderopacity="1"
     objecttolerance="10"
     gridtolerance="10"
     guidetolerance="10"
     inkscape:pageopacity="0"
     inkscape:pageshadow="2"
     inkscape:window-width="1024"
     inkscape:window-height="745"
     id="namedview12"
     showgrid="false"
     inkscape:zoom="1.259901"
     inkscape:cx="93.343547"
     inkscape:cy="202"
     inkscape:window-x="-8"
     inkscape:window-y="-8"
     inkscape:window-maximized="1"
     inkscape:current-layer="g18"
     inkscape:document-rotation="0" /><g
     id="g18"
     inkscape:groupmode="layer"
     inkscape:label="Tercera Footer"
     transform="matrix(1.3333333,0,0,-1.3333333,0,404)"><g
       id="g20"
       style="fill:#f5f5f5;fill-opacity:1"><g
         id="g22"
         clip-path="url(#clipPath26)"
         style="fill:#f5f5f5;fill-opacity:1"><g
           id="g28"
           transform="translate(-0.3511,18.8828)"
           style="fill:#f5f5f5;fill-opacity:1"><path
             d="m 0,0 c 46.604,-0.003 93.208,-0.002 139.812,-0.045 0.961,-0.001 2.557,0.849 2.633,-1.321 0.051,-1.448 -0.221,-2.35 -1.925,-2.129 -0.551,0.071 -1.118,0.01 -1.678,0.01 -45.245,0 -90.49,-0.001 -135.736,0.005 -1.035,0 -2.07,0.079 -3.106,0.121 z"
             style="fill:#f5f5f5;fill-opacity:1;fill-rule:nonzero;stroke:none"
             id="path30" /></g><g
           id="g32"
           transform="translate(179.0791,235.5166)"
           style="fill:#f5f5f5;fill-opacity:1"><path
             d="m 0,0 c 0.197,-1.111 0.326,-1.637 0.38,-2.171 0.361,-3.556 2.285,-6.695 2.244,-10.447 -0.085,-7.848 0.584,-15.674 2.576,-23.321 -0.344,4.778 -0.389,9.559 -0.465,14.341 -0.025,1.604 0.36,2.911 1.358,4.183 1.365,1.739 2.543,3.623 3.801,5.445 C 7.78,-12.953 6.849,-14.994 4.743,-16.318 5.328,-4.002 6.375,7.869 10.819,19.185 10.122,17.81 9.424,16.435 8.727,15.06 9.265,27.265 9.14,39.232 5.095,50.825 6.118,43.996 6.678,37.147 6.372,30.144 5.217,30.522 5.451,31.853 4.227,32.313 4.605,31.112 4.759,30.056 5.247,29.187 6.491,26.962 6.397,24.609 6.224,22.214 5.553,12.931 3.979,3.764 2.725,-5.759 1.387,-4.061 1.321,-2.061 0,0 M 0.072,67.408 C 3.137,62.672 6.292,57.993 9.25,53.192 18.729,37.81 27.451,22.052 32.902,4.7 c 1.561,-4.967 2.653,-10.032 3.026,-15.221 0.655,-9.136 -3.007,-16.623 -9.104,-23.122 -4.249,-4.529 -9.189,-8.177 -14.601,-11.175 -1.234,-0.683 -1.645,-1.459 -1.614,-2.822 0.085,-3.757 -0.029,-7.519 0.058,-11.276 0.034,-1.482 -0.273,-2.21 -1.949,-2.091 -1.91,0.136 -3.841,0.109 -5.755,0.007 -1.488,-0.079 -1.928,0.486 -1.895,1.935 0.085,3.677 -0.067,7.361 0.07,11.035 0.064,1.72 -0.449,2.705 -1.958,3.619 -6.412,3.881 -12.152,8.611 -16.61,14.679 -9.285,12.64 -9.25,25.856 -2.055,39.386 1.994,3.748 4.579,7.115 7.051,10.554 9.417,13.099 13.105,27.851 12.535,43.812 -0.02,0.552 -0.187,1.097 -0.268,1.648 -0.074,0.512 -0.125,1.026 -0.186,1.54 0.142,0.066 0.284,0.133 0.425,0.2"
             style="fill:#f5f5f5;fill-opacity:1;fill-rule:nonzero;stroke:none"
             id="path34" /></g><g
           id="g36"
           transform="translate(258.0283,242.874)"
           style="fill:#f5f5f5;fill-opacity:1"><path
             d="m 0,0 c -0.955,0.282 -1.298,-0.142 -1.674,-0.386 -5.779,-3.742 -9.234,-9.122 -10.989,-15.686 -0.854,-3.192 -1.304,-6.5 -2.618,-9.57 -1.067,0.242 -0.781,1.428 -1.832,1.898 0.578,-2.763 1.337,-5.388 -0.434,-7.843 -0.835,-1.158 -1.375,-2.524 -2.164,-3.72 -2.357,-3.574 -5.152,-6.714 -8.977,-8.939 -0.349,1.024 0.633,1.732 -0.131,2.75 -0.993,-2.963 -2.713,-5.058 -5.775,-5.796 -2.474,-0.597 -4.921,-1.313 -7.377,-1.988 -2.254,-0.619 -4.488,-1.282 -6.048,-3.254 2.171,0.716 4.235,1.614 6.557,1.875 6.262,0.703 12.213,2.426 17.231,6.466 1.398,1.125 2.747,2.015 4.627,2.234 1.34,0.155 2.843,0.46 4.25,1.952 -1.796,-0.368 -3.138,-0.902 -4.735,-0.363 4.601,5.567 7.239,11.823 8.688,18.613 0.813,3.815 0.797,8.009 5.341,10.076 -1.359,0.604 -1.857,-0.771 -2.917,-0.33 C -7.295,-7.063 -4.074,-3.31 0,0 m 12.644,15.48 c 2.33,-10.661 2.823,-20.964 1.41,-31.355 -0.903,-6.632 -1.284,-13.338 -3.15,-19.83 -4.38,-15.234 -15.008,-24.211 -30.84,-26.016 -9.191,-1.048 -18.321,-0.756 -27.415,0.922 -3.525,0.651 -5.236,-0.641 -5.726,-4.242 -0.084,-0.618 -0.191,-1.233 -0.313,-2.018 -2.139,1.115 -3.635,2.7 -4.856,4.588 -0.415,0.642 -0.568,1.34 -0.342,2.06 1.604,5.082 3.524,9.751 8.663,12.63 7.944,4.45 14.893,10.2 20.016,17.887 5.163,7.748 7.334,16.213 5.888,25.485 -0.263,1.686 0.281,2.951 1.447,4.077 1.846,1.784 4.172,2.613 6.56,3.295 2.911,0.832 5.85,1.569 8.757,2.414 7.135,2.075 14.217,4.272 19.901,10.103"
             style="fill:#f5f5f5;fill-opacity:1;fill-rule:nonzero;stroke:none"
             id="path38" /></g><g
           id="g40"
           transform="translate(112.1113,243.3198)"
           style="fill:#f5f5f5;fill-opacity:1"><path
             d="m 0,0 c 4.282,-3.295 7.548,-7.35 9.411,-12.553 -1.12,-0.265 -1.661,1.097 -3.109,0.359 3.886,-1.646 4.589,-4.841 5.122,-8.273 0.686,-4.426 2.137,-8.656 4.055,-12.711 1.291,-2.729 3.105,-5.142 4.878,-7.623 -1.58,-0.679 -2.938,0.24 -4.49,0.142 1.197,-1.199 2.65,-1.605 3.99,-1.728 1.981,-0.181 3.397,-1.137 4.852,-2.305 3.416,-2.741 7.363,-4.435 11.59,-5.466 4.274,-1.043 8.878,-0.755 12.783,-3.319 -2.415,2.812 -5.762,3.445 -9.064,4.304 -4.402,1.144 -9.279,1.715 -10.885,7.171 -0.021,0.071 -0.211,0.092 -0.341,0.144 -0.37,-0.895 0.85,-1.752 -0.009,-2.729 -5.429,3.529 -9.021,8.487 -11.604,14.284 -0.473,1.061 -0.757,2.049 -0.222,3.202 0.317,0.685 0.484,1.497 0.097,2.296 -0.693,-0.183 -0.49,-1.215 -1.694,-1.284 C 13.088,-15.842 11.106,-5.183 0,0 M -12.386,15.159 C -6.587,9.25 0.361,7.085 7.331,4.993 10.763,3.963 14.237,3.076 17.685,2.1 c 1.864,-0.528 3.561,-1.387 5.025,-2.683 1.204,-1.064 1.876,-2.254 1.644,-3.984 -2.1,-15.725 4.821,-27.479 16.46,-37.123 3.269,-2.708 6.765,-5.097 10.458,-7.182 4.769,-2.691 6.287,-7.399 7.663,-12.197 0.289,-1.008 -0.215,-1.869 -0.818,-2.651 -1.128,-1.462 -2.419,-2.74 -4.138,-3.701 -0.128,0.221 -0.302,0.388 -0.319,0.57 -0.49,5.32 -1.845,6.097 -7.154,5.329 -11.765,-1.705 -23.566,-2.367 -35.096,1.45 -12.651,4.187 -19.869,13.413 -22.444,26.097 -2.59,12.756 -4.459,25.666 -2.946,38.77 0.381,3.296 1.002,6.564 1.594,10.364"
             style="fill:#f5f5f5;fill-opacity:1;fill-rule:nonzero;stroke:none"
             id="path42" /></g><g
           id="g44"
           transform="translate(312.4482,154.8521)"
           style="fill:#f5f5f5;fill-opacity:1"><path
             d="m 0,0 c -2.367,-6.278 -4.492,-12.012 -6.707,-17.71 -0.504,-1.297 -0.281,-1.674 1.107,-1.649 3.347,0.062 6.697,0.019 10.045,0.02 3.129,0 3.139,0.005 1.997,2.924 C 4.369,-11.112 2.282,-5.814 0,0 m -53.474,-4.707 v -4.548 c 0,-6.47 0,-6.47 6.535,-6.104 5.641,0.317 9.551,4.088 10.001,9.648 0.496,6.11 -2.334,9.821 -8.353,11.076 -2.141,0.446 -4.294,0.17 -6.434,0.329 -1.38,0.102 -1.805,-0.445 -1.77,-1.783 0.077,-2.871 0.023,-5.745 0.021,-8.618 M -53.643,8.98 c 3.622,-0.264 8.023,0.398 12.401,-0.414 6.929,-1.283 10.943,-4.571 11.611,-9.684 0.91,-6.962 -2.224,-12.743 -8.68,-15.43 -2.043,-0.851 -1.97,-1.423 -0.734,-2.989 3.814,-4.829 7.462,-9.789 11.199,-14.678 0.627,-0.822 1.278,-1.683 2.09,-2.297 3.444,-2.601 7.293,-1.893 8.826,2.263 4.085,11.07 8.517,22.01 12.739,33.03 1.206,3.146 2.916,6.027 4.34,9.055 0.526,1.117 1.137,1.722 2.516,1.672 1.408,-0.05 1.431,-1.086 1.75,-1.898 5.428,-13.802 10.87,-27.599 16.203,-41.438 0.872,-2.262 1.986,-3.946 4.494,-4.424 0.909,-0.174 1.577,-0.591 1.45,-1.774 -0.147,-1.382 -1.151,-0.86 -1.802,-0.867 -4.879,-0.045 -9.758,-0.036 -14.637,-0.009 -0.633,0.003 -1.532,-0.341 -1.644,0.82 -0.093,0.974 0.357,1.331 1.281,1.643 1.506,0.511 3.874,0.086 4.312,1.703 0.341,1.257 -0.894,2.954 -1.468,4.442 -1.003,2.603 -2.081,5.179 -3.037,7.8 -0.384,1.055 -0.935,1.495 -2.089,1.483 -4.878,-0.053 -9.758,-0.044 -14.637,-0.005 -1.098,0.009 -1.724,-0.301 -2.111,-1.419 -1.303,-3.768 -2.664,-7.519 -4.124,-11.228 -0.443,-1.126 -0.224,-1.597 0.873,-1.871 1.236,-0.309 2.449,-0.714 3.691,-0.991 1.075,-0.24 0.775,-1.042 0.796,-1.708 0.027,-0.835 -0.619,-0.811 -1.174,-0.808 -6.876,0.051 -13.754,0.054 -20.628,0.209 -1.777,0.04 -2.998,1.322 -4.022,2.739 -4.213,5.829 -8.455,11.637 -12.689,17.451 -0.836,1.147 -4.962,2.655 -6.199,2.347 -0.775,-0.195 -0.714,-0.761 -0.715,-1.303 -0.009,-5.278 0,-10.558 -0.006,-15.836 -0.001,-1.262 0.748,-1.871 1.851,-2.154 1.312,-0.339 2.625,-0.7 3.958,-0.934 0.948,-0.167 1.129,-0.715 1.103,-1.522 -0.031,-0.989 -0.754,-0.867 -1.371,-0.867 -5.919,-0.007 -11.838,-0.007 -17.757,0 -0.622,0.001 -1.336,-0.102 -1.304,0.909 0.02,0.672 0.027,1.302 0.892,1.435 0.237,0.036 0.469,0.099 0.699,0.165 4.68,1.356 4.995,0.302 4.965,6.611 -0.051,11.119 -0.012,22.236 -0.016,33.354 -10e-4,3.469 -0.167,3.674 -3.55,4.558 -0.309,0.081 -0.642,0.099 -0.929,0.224 -0.846,0.372 -2.283,0.063 -2.053,1.723 0.224,1.613 1.499,0.85 2.259,0.871 3.437,0.094 6.877,0.041 11.077,0.041"
             style="fill:#f5f5f5;fill-opacity:1;fill-rule:nonzero;stroke:none"
             id="path46" /></g><g
           id="g48"
           transform="translate(50.7754,196.437)"
           style="fill:#f5f5f5;fill-opacity:1"><path
             d="m 0,0 c 14.707,0 29.413,-0.007 44.12,0.018 0.833,0.001 2.098,-0.46 2.418,0.305 0.377,0.9 -0.53,1.905 -0.971,2.817 C 45.118,4.067 44.174,3.749 43.42,3.749 14.087,3.762 -15.246,3.756 -44.579,3.771 -45.95,3.772 -47,3.856 -47.013,1.857 c -0.013,-2.032 1.077,-1.869 2.414,-1.868 C -29.732,0.006 -14.866,0 0,0 m 54.237,-6.657 h -2.902 c -32.87,0 -65.74,0.034 -98.61,-0.068 -2.523,-0.008 -3.099,0.714 -2.928,3.044 0.203,2.784 0.176,5.602 0.003,8.391 -0.117,1.893 0.595,2.223 2.311,2.218 19.595,-0.056 39.188,-0.036 58.783,-0.035 11.516,0 23.033,-0.028 34.549,0.031 1.566,0.009 2.396,-0.357 2.977,-1.955 1.434,-3.95 3.539,-7.606 5.817,-11.626"
             style="fill:#f5f5f5;fill-opacity:1;fill-rule:nonzero;stroke:none"
             id="path50" /></g><g
           id="g52"
           transform="translate(273.4004,196.5474)"
           style="fill:#f5f5f5;fill-opacity:1"><path
             d="m 0,0 c 0.387,-0.047 0.623,-0.102 0.859,-0.102 29.809,-0.005 59.617,0.003 89.425,-0.037 1.467,-0.002 1.839,0.44 1.914,1.886 0.12,2.284 -1.341,1.9 -2.66,1.9 C 61.168,3.65 32.798,3.6 4.429,3.727 1.574,3.739 0.364,2.75 0,0 m -8.319,-6.768 c 3.434,3.766 5.011,7.876 6.68,11.912 0.52,1.256 1.14,1.662 2.447,1.66 30.858,-0.03 61.716,-0.033 92.575,0.008 1.572,0.002 2.064,-0.453 2.008,-2.022 -0.114,-3.114 -0.145,-6.24 0.008,-9.35 0.09,-1.805 -0.453,-2.255 -2.248,-2.25 -20.225,0.067 -40.452,0.042 -60.677,0.042 H -5.18 Z"
             style="fill:#f5f5f5;fill-opacity:1;fill-rule:nonzero;stroke:none"
             id="path54" /></g><g
           id="g56"
           transform="translate(123.7373,78.8721)"
           style="fill:#f5f5f5;fill-opacity:1"><path
             d="m 0,0 c 3.438,0.001 6.878,0.05 10.314,-0.024 1.324,-0.029 1.836,0.347 1.815,1.741 -0.068,4.717 -0.087,9.436 0,14.153 0.042,2.26 -1.489,2.655 -3.11,3.284 -1.227,0.476 -3.679,-0.239 -3.329,2.012 0.299,1.919 2.382,0.816 3.598,0.854 4.793,0.147 9.593,0.079 14.391,0.039 0.679,-0.005 1.692,0.459 1.841,-0.863 0.138,-1.235 -0.699,-1.398 -1.592,-1.638 -5.423,-1.456 -4.841,-0.892 -4.847,-6.625 -0.012,-11.195 0.077,-22.391 -0.063,-33.584 -0.032,-2.608 0.899,-3.869 3.349,-4.257 0.705,-0.113 1.383,-0.397 2.089,-0.508 0.957,-0.151 1.094,-0.772 1.056,-1.564 -0.048,-0.998 -0.8,-0.828 -1.402,-0.83 -5.757,-0.01 -11.515,-0.006 -17.272,-0.002 -0.643,0 -1.319,-0.057 -1.278,0.94 0.028,0.685 0.07,1.29 0.924,1.414 0.235,0.034 0.458,0.139 0.69,0.194 5.463,1.302 4.916,1.2 4.93,6.847 0.01,4.238 -0.05,8.477 0.028,12.714 0.029,1.564 -0.302,2.291 -2.093,2.265 -6.715,-0.094 -13.434,-0.08 -20.15,-0.007 -1.589,0.016 -2.063,-0.521 -2.04,-2.073 0.078,-5.117 0.144,-10.239 -0.022,-15.351 -0.078,-2.397 0.877,-3.454 3.081,-4.01 1.268,-0.319 3.688,0.183 3.28,-2.061 -0.334,-1.841 -2.417,-0.787 -3.66,-0.822 -4.794,-0.137 -9.594,-0.074 -14.392,-0.033 -0.665,0.005 -1.691,-0.474 -1.78,0.903 -0.067,1.051 0.485,1.31 1.375,1.544 5.261,1.389 5.199,0.46 5.182,7.146 -0.028,10.955 -0.005,21.91 -0.009,32.865 -0.001,3.469 -0.167,3.673 -3.548,4.56 -0.462,0.121 -0.918,0.281 -1.387,0.363 -0.911,0.16 -1.722,0.314 -1.615,1.581 0.117,1.371 1.13,0.886 1.793,0.891 5.517,0.039 11.035,0.031 16.552,0.008 0.639,-0.003 1.523,0.313 1.618,-0.851 0.084,-1.008 -0.413,-1.337 -1.341,-1.58 -5.854,-1.538 -5.044,-0.798 -5.094,-7.14 -0.026,-3.358 0.125,-6.724 -0.051,-10.073 -0.11,-2.079 0.646,-2.556 2.575,-2.463 C -6.403,0.111 -3.199,0 0,0"
             style="fill:#f5f5f5;fill-opacity:1;fill-rule:nonzero;stroke:none"
             id="path58" /></g><g
           id="g60"
           transform="translate(118.8149,150.333)"
           style="fill:#f5f5f5;fill-opacity:1"><path
             d="m 0,0 v -4.787 c 0,-6.315 0,-6.315 6.345,-6.054 5.765,0.237 9.765,4.043 10.193,9.699 C 17,4.982 14.186,8.648 8.133,9.896 5.994,10.337 3.838,10.054 1.697,10.214 0.257,10.321 -0.048,9.652 -0.019,8.379 0.046,5.587 0.001,2.793 0,0 m 12.994,-13.099 c 4.59,-6.008 9.104,-11.901 13.598,-17.808 1.427,-1.875 3.519,-2.33 5.63,-2.846 0.837,-0.205 2.013,-0.2 1.847,-1.67 -0.188,-1.672 -1.455,-0.897 -2.219,-0.935 -2.233,-0.113 -4.478,0.028 -6.714,-0.059 -2.388,-0.094 -4.12,0.891 -5.489,2.789 -4.205,5.832 -8.449,11.636 -12.681,17.447 -0.886,1.217 -4.79,2.677 -6.167,2.408 -0.785,-0.154 -0.785,-0.678 -0.786,-1.234 -0.008,-5.277 0.001,-10.555 -0.009,-15.832 -0.003,-1.373 0.791,-1.986 2.011,-2.264 1.322,-0.301 2.63,-0.666 3.958,-0.934 0.837,-0.17 0.931,-0.722 0.95,-1.408 0.025,-0.967 -0.639,-0.95 -1.295,-0.951 -5.997,0 -11.994,0 -17.991,0.005 -0.564,0 -1.156,-0.018 -1.143,0.821 0.01,0.646 -0.064,1.314 0.798,1.508 0.389,0.088 0.77,0.208 1.154,0.314 4.581,1.26 4.582,1.26 4.582,5.906 0,11.275 0.001,22.549 -10e-4,33.824 -0.001,3.588 -0.141,3.76 -3.686,4.679 -0.695,0.18 -1.393,0.345 -2.089,0.523 -0.848,0.217 -0.759,0.898 -0.754,1.539 0.007,0.863 0.655,0.78 1.189,0.764 8.301,-0.246 16.621,0.577 24.905,-0.464 0.238,-0.03 0.479,-0.045 0.714,-0.093 5.952,-1.227 9.863,-4.727 10.525,-9.412 0.929,-6.575 -1.889,-12.146 -7.673,-15.134 -0.98,-0.506 -1.998,-0.939 -3.164,-1.483"
             style="fill:#f5f5f5;fill-opacity:1;fill-rule:nonzero;stroke:none"
             id="path62" /></g><g
           id="g64"
           transform="translate(161.8198,77.0605)"
           style="fill:#f5f5f5;fill-opacity:1"><path
             d="m 0,0 c 0.017,-5.645 0.712,-11.165 3.546,-16.162 2.937,-5.18 7.485,-7.719 13.458,-7.484 5.678,0.224 9.482,3.252 11.948,8.216 1.664,3.35 2.395,6.94 2.566,10.616 C 31.839,2.112 31.414,8.969 27.487,15.008 21.334,24.467 7.88,23.709 2.766,13.691 0.567,9.383 -0.023,4.757 0,0 m 14.349,-27.036 c -10.215,-0.518 -20.785,7.101 -21.945,22.45 -0.389,5.144 -0.056,10.189 1.87,15.057 3.612,9.13 11.273,14.264 21.093,14.413 9.387,0.142 16.669,-3.309 20.995,-11.86 2.693,-5.322 3.404,-11.107 2.879,-17.013 -0.297,-3.344 -1.016,-6.625 -2.43,-9.699 -4.139,-8.996 -11.225,-13.342 -22.462,-13.348"
             style="fill:#f5f5f5;fill-opacity:1;fill-rule:nonzero;stroke:none"
             id="path66" /></g><g
           id="g68"
           transform="translate(219.9219,113.9346)"
           style="fill:#f5f5f5;fill-opacity:1"><path
             d="m 0,0 c -6.076,0 -12.152,-0.017 -18.229,0.024 -0.657,0.005 -1.678,-0.506 -1.834,0.84 -0.141,1.219 0.624,1.392 1.542,1.653 4.821,1.37 5.043,0.273 5.015,6.796 -0.048,11.033 -0.012,22.066 -0.015,33.099 0,3.512 -0.18,3.743 -3.479,4.613 -0.54,0.142 -1.071,0.34 -1.619,0.418 -0.883,0.126 -1.489,0.377 -1.456,1.47 0.043,1.38 1.043,0.964 1.726,0.967 7.675,0.027 15.351,0.017 23.026,0.017 3.677,0 7.356,-0.053 11.032,0.027 1.364,0.03 1.806,-0.421 1.768,-1.77 -0.082,-2.876 -0.023,-5.756 -0.03,-8.633 -10e-4,-0.793 0.132,-1.694 -1.141,-1.599 -0.904,0.068 -1.952,-0.316 -2.286,1.083 -0.425,1.782 -1.029,3.521 -1.444,5.305 -0.363,1.562 -1.192,2.284 -2.841,2.267 -4.876,-0.051 -9.754,-0.05 -14.63,0.004 -1.233,0.013 -1.683,-0.374 -1.67,-1.636 0.051,-5.116 0.053,-10.234 -0.003,-15.35 -0.015,-1.317 0.347,-1.856 1.751,-1.804 2.634,0.096 5.277,0.071 7.914,0.012 1.691,-0.039 2.715,0.647 3.134,2.301 0.314,1.234 0.743,2.44 1.056,3.675 0.258,1.011 0.951,1.118 1.824,1.113 1.14,-0.009 0.998,-0.802 0.999,-1.502 0.008,-4.877 0.006,-9.754 0.001,-14.631 0,-0.708 0.126,-1.463 -1.019,-1.457 -0.898,0.004 -1.534,0.165 -1.797,1.144 -0.371,1.384 -0.846,2.739 -1.231,4.118 -0.377,1.358 -1.244,1.939 -2.635,1.923 -2.798,-0.03 -5.598,-0.065 -8.394,0.016 -1.323,0.038 -1.605,-0.527 -1.597,-1.708 0.039,-5.916 0.054,-11.833 -0.01,-17.749 -0.015,-1.409 0.511,-1.745 1.823,-1.733 5.756,0.057 11.514,0.057 17.27,0.005 1.743,-0.015 2.631,0.701 2.962,2.407 0.364,1.875 1.05,3.696 1.317,5.58 0.222,1.564 1.065,1.674 2.313,1.65 1.531,-0.03 1.054,-1.126 1.065,-1.88 C 20.221,7.958 20.133,4.838 20.224,1.723 20.265,0.354 19.826,-0.042 18.468,-0.028 12.313,0.037 6.156,0 0,0"
             style="fill:#f5f5f5;fill-opacity:1;fill-rule:nonzero;stroke:none"
             id="path70" /></g><g
           id="g72"
           transform="translate(80.2588,113.9346)"
           style="fill:#f5f5f5;fill-opacity:1"><path
             d="m 0,0 c -6.076,0 -12.153,-0.018 -18.229,0.025 -0.656,0.004 -1.681,-0.515 -1.848,0.823 -0.15,1.204 0.589,1.4 1.522,1.665 4.835,1.371 5.061,0.268 5.032,6.783 -0.048,10.873 -0.013,21.747 -0.013,32.62 -0.001,4.16 -0.002,4.158 -3.937,5.187 -0.386,0.1 -0.758,0.302 -1.147,0.335 -1.068,0.093 -1.608,0.564 -1.449,1.698 0.165,1.172 1.084,0.737 1.687,0.74 6.875,0.033 13.751,0.021 20.627,0.021 4.477,0 8.955,-0.045 13.431,0.027 1.348,0.022 1.826,-0.381 1.784,-1.753 -0.086,-2.796 -0.002,-5.596 -0.04,-8.394 -0.01,-0.782 0.382,-1.864 -1.114,-1.868 -1.181,-0.003 -2.154,-0.057 -2.414,1.549 -0.266,1.64 -0.95,3.207 -1.329,4.835 -0.361,1.557 -1.172,2.301 -2.828,2.284 -4.876,-0.051 -9.754,-0.048 -14.63,0.003 -1.214,0.013 -1.701,-0.337 -1.688,-1.618 0.053,-5.196 0.056,-10.394 0,-15.59 -0.015,-1.331 0.565,-1.599 1.731,-1.572 2.638,0.058 5.278,0.072 7.915,0 1.836,-0.051 2.807,0.783 3.208,2.519 0.268,1.162 0.703,2.286 0.995,3.445 0.253,1.006 0.931,1.132 1.812,1.13 1.134,-0.003 1.016,-0.777 1.016,-1.488 0.006,-4.877 0.013,-9.754 -0.01,-14.631 -0.002,-0.563 0.278,-1.382 -0.753,-1.438 -0.796,-0.044 -1.646,-0.172 -1.966,0.868 -0.094,0.305 -0.14,0.624 -0.243,0.926 -2.032,5.933 -0.516,5.332 -7.531,5.347 -6.155,0.012 -6.155,10e-4 -6.155,-6.224 0,-4.317 0.063,-8.636 -0.032,-12.951 C -6.63,3.708 -6.1,3.279 -4.542,3.304 1.053,3.392 6.651,3.387 12.247,3.311 c 1.94,-0.026 2.94,0.674 3.264,2.633 0.311,1.881 1.006,3.7 1.311,5.581 0.244,1.509 1.181,1.407 2.258,1.422 1.524,0.022 1.072,-1.093 1.082,-1.855 0.04,-3.037 -0.063,-6.079 0.05,-9.113 C 20.27,0.428 19.821,-0.061 18.228,-0.036 12.153,0.055 6.076,0 0,0"
             style="fill:#f5f5f5;fill-opacity:1;fill-rule:nonzero;stroke:none"
             id="path74" /></g><g
           id="g76"
           transform="translate(248.1289,91.9688)"
           style="fill:#f5f5f5;fill-opacity:1"><path
             d="m 0,0 c -2.38,-6.307 -4.551,-12.106 -6.769,-17.89 -0.377,-0.984 -0.354,-1.466 0.881,-1.456 4.066,0.033 8.132,0.018 12.198,0.008 0.804,-0.002 1.219,0.193 0.857,1.11 C 4.839,-12.337 2.529,-6.438 0,0 m 17.441,-40.913 c -2.479,0 -4.96,-0.013 -7.439,0.008 -0.671,0.006 -1.52,-0.219 -1.535,0.948 -0.011,0.853 0.283,1.386 1.191,1.452 0.079,0.006 0.162,0.02 0.235,0.052 1.419,0.621 3.768,0.192 4.178,1.612 0.359,1.237 -0.866,2.95 -1.434,4.437 -0.997,2.606 -2.076,5.182 -3.023,7.806 -0.411,1.143 -1.004,1.613 -2.26,1.595 -4.879,-0.066 -9.759,-0.049 -14.639,-0.011 -1.023,0.008 -1.577,-0.314 -1.93,-1.316 -1.349,-3.837 -2.728,-7.665 -4.218,-11.449 -0.418,-1.063 -0.14,-1.455 0.803,-1.715 1.152,-0.317 2.287,-0.733 3.459,-0.933 1.082,-0.183 1.206,-0.802 1.154,-1.691 -0.059,-1.044 -0.836,-0.78 -1.404,-0.783 -4,-0.022 -7.999,-0.022 -11.999,0 -0.574,0.003 -1.363,-0.239 -1.399,0.795 -0.027,0.754 -0.026,1.457 0.956,1.633 3.543,0.637 4.626,3.402 5.735,6.339 3.97,10.519 8.019,21.009 12.158,31.462 1.142,2.882 2.711,5.595 4.07,8.393 0.501,1.033 0.977,1.838 2.436,1.8 1.526,-0.039 1.562,-1.12 1.913,-2.014 5.398,-13.73 10.82,-27.45 16.122,-41.217 0.903,-2.344 2.05,-4.103 4.652,-4.574 1.014,-0.184 1.476,-0.768 1.324,-1.856 -0.167,-1.194 -1.068,-0.739 -1.666,-0.752 -2.48,-0.052 -4.96,-0.022 -7.44,-0.021"
             style="fill:#f5f5f5;fill-opacity:1;fill-rule:nonzero;stroke:none"
             id="path78" /></g><g
           id="g80"
           transform="translate(193.6934,156.0371)"
           style="fill:#f5f5f5;fill-opacity:1"><path
             d="m 0,0 c -0.002,-1.52 0.017,-3.04 -0.011,-4.56 -0.011,-0.673 0.194,-1.565 -0.953,-1.524 -0.891,0.032 -2.001,-0.402 -2.358,0.968 -0.241,0.926 -0.611,1.835 -0.721,2.775 -0.39,3.328 -2.493,4.921 -5.472,5.868 -3.624,1.152 -7.281,1.96 -11.064,1.209 -6.345,-1.259 -9.583,-5.716 -11.147,-11.551 -1.687,-6.296 -1.596,-12.671 0.119,-18.956 3.718,-13.635 18.998,-14.751 27,-9.583 1.138,0.735 2.214,1.571 3.293,2.397 0.857,0.656 1.539,1.855 2.845,1.212 0.695,-0.341 0.114,-3.661 -0.746,-4.351 -3.97,-3.188 -8.286,-5.88 -13.355,-6.678 -8.585,-1.352 -17.735,0.937 -23.362,8.861 -7.348,10.349 -7.093,31.75 7.828,39.867 6.284,3.417 12.878,3.233 19.597,2.129 C -6.306,7.72 -4.144,7.125 -1.951,6.699 -0.458,6.409 0.206,5.675 0.031,4.077 -0.115,2.733 0.001,1.36 0,0"
             style="fill:#f5f5f5;fill-opacity:1;fill-rule:nonzero;stroke:none"
             id="path82" /></g><g
           id="g84"
           transform="translate(34.3398,163.832)"
           style="fill:#f5f5f5;fill-opacity:1"><path
             d="m 0,0 c 6.397,0 12.796,-0.056 19.192,0.038 1.695,0.024 2.433,-0.269 2.312,-2.185 -0.18,-2.868 -0.029,-5.755 -0.059,-8.634 -0.008,-0.712 0.347,-1.731 -1.016,-1.673 -0.996,0.043 -2.058,-0.288 -2.352,1.29 -0.364,1.953 -1.003,3.855 -1.516,5.781 -0.378,1.417 -1.194,2.115 -2.757,2.069 -2.877,-0.084 -5.759,-0.075 -8.636,-10e-4 -1.294,0.033 -1.843,-0.289 -1.837,-1.717 0.045,-12.875 0.031,-25.75 0.022,-38.626 -0.002,-1.688 0.708,-2.691 2.433,-2.991 1.253,-0.22 2.468,-0.651 3.72,-0.876 0.893,-0.161 0.871,-0.731 0.913,-1.396 0.063,-0.973 -0.556,-0.975 -1.233,-0.975 -6.158,0.002 -12.315,-0.003 -18.473,0.007 -0.599,0.001 -1.338,-0.16 -1.351,0.86 -0.01,0.799 0.098,1.445 1.085,1.511 0.235,0.016 0.466,0.109 0.698,0.164 5.806,1.409 5.231,0.592 5.235,6.957 0.009,11.595 -0.03,23.192 0.038,34.787 0.011,1.723 -0.351,2.439 -2.232,2.315 -2.548,-0.17 -5.123,-0.158 -7.672,-0.006 -2.021,0.12 -2.918,-0.794 -3.334,-2.613 -0.39,-1.706 -1.018,-3.363 -1.341,-5.079 -0.259,-1.383 -1.04,-1.494 -2.196,-1.491 -1.423,0.004 -1.23,0.93 -1.233,1.791 -0.008,2.959 0.073,5.92 -0.035,8.875 -0.055,1.536 0.549,1.858 1.952,1.845 C -13.116,-0.034 -6.558,0 0,0"
             style="fill:#f5f5f5;fill-opacity:1;fill-rule:nonzero;stroke:none"
             id="path86" /></g><g
           id="g88"
           transform="translate(213.7402,71.834)"
           style="fill:#f5f5f5;fill-opacity:1"><path
             d="m 0,0 c 0,8.201 -0.08,15.155 0.044,22.105 0.042,2.345 -0.754,3.617 -3.071,3.973 -1.101,0.169 -2.176,0.498 -3.27,0.718 -0.862,0.174 -0.848,0.797 -0.858,1.461 -0.015,0.822 0.534,0.853 1.115,0.854 6.073,0.002 12.147,0.005 18.221,-0.003 0.538,0 1.166,0.088 1.187,-0.771 0.02,-0.763 -0.041,-1.317 -0.987,-1.61 C 10.667,26.193 8.392,26.446 7.424,24.753 6.433,23.018 7.079,20.84 7.071,18.862 7.03,7.754 7.091,-3.354 7.034,-14.462 7.008,-19.65 6.074,-24.623 2.839,-28.909 c -3.713,-4.917 -10.245,-7.216 -17.457,-4.789 -0.546,0.183 -1.139,0.384 -1.051,1.091 0.217,1.739 0.457,3.478 0.774,5.202 0.249,1.354 1.137,0.763 1.82,0.443 1.876,-0.883 3.731,-1.786 5.806,-2.153 4.541,-0.805 6.437,0.667 6.829,5.218 C 0.278,-15.523 -0.125,-7.134 0,0"
             style="fill:#f5f5f5;fill-opacity:1;fill-rule:nonzero;stroke:none"
             id="path90" /></g><g
           id="g92"
           transform="translate(298.7451,18.8721)"
           style="fill:#f5f5f5;fill-opacity:1"><path
             d="m 0,0 c 22.557,0 45.114,0.008 67.671,-0.027 0.912,-0.002 2.325,0.72 2.386,-1.313 0.048,-1.65 -0.382,-2.258 -2.113,-2.172 -2.793,0.139 -5.597,0.037 -8.396,0.037 -42.395,0 -84.788,-0.003 -127.182,0.013 -1.146,0 -2.67,-0.554 -2.508,1.701 0.094,1.295 0.357,1.946 1.753,1.772 C -67.837,-0.058 -67.271,0 -66.71,0 Z"
             style="fill:#f5f5f5;fill-opacity:1;fill-rule:nonzero;stroke:none"
             id="path94" /></g><g
           id="g96"
           transform="translate(181.2187,15.001)"
           style="fill:#f5f5f5;fill-opacity:1"><path
             d="M 0,0 C 1.999,0.004 3.393,1.452 3.354,3.485 3.316,5.393 1.955,6.766 0.064,6.804 -1.867,6.844 -3.474,5.321 -3.494,3.435 -3.513,1.551 -1.932,-0.004 0,0 m 13.904,0.206 c -0.348,-4.324 -2.098,-9.12 -5.911,-12.98 -2.992,-3.031 -6.332,-3.084 -9.226,0.072 -4.206,4.587 -6.724,10.012 -5.663,16.359 0.948,5.666 6.098,9.039 11.876,8.328 5.177,-0.636 8.991,-5.226 8.924,-11.779"
             style="fill:#f5f5f5;fill-opacity:1;fill-rule:nonzero;stroke:none"
             id="path98" /></g><g
           id="g100"
           transform="translate(158.5557,18.0293)"
           style="fill:#f5f5f5;fill-opacity:1"><path
             d="M 0,0 C 1.399,0.244 2.394,0.899 2.427,2.461 2.461,4.015 1.54,4.924 0.114,4.971 -1.423,5.021 -2.469,4.148 -2.449,2.471 -2.431,0.913 -1.395,0.268 0,0 m -11.167,-2.199 c 0.321,3.22 1.574,6.536 4.153,9.228 3.053,3.189 7.845,3.214 10.946,0.158 C 6.938,4.225 7.004,-0.859 3.888,-3.79 1.063,-6.447 -2.416,-7.863 -6.294,-8.005 c -3.355,-0.123 -5.014,1.802 -4.873,5.806"
             style="fill:#f5f5f5;fill-opacity:1;fill-rule:nonzero;stroke:none"
             id="path102" /></g><g
           id="g104"
           transform="translate(211.9492,23.0596)"
           style="fill:#f5f5f5;fill-opacity:1"><path
             d="m 0,0 c -1.469,-0.186 -2.521,-0.971 -2.497,-2.557 0.023,-1.451 1.012,-2.369 2.431,-2.415 1.586,-0.05 2.557,0.983 2.544,2.512 C 2.465,-1.047 1.515,-0.185 0,0 m 6.025,-13.009 c -3.467,0.197 -6.531,1.488 -9.211,3.617 -3.533,2.808 -3.893,8.004 -0.883,11.285 3.071,3.345 8.095,3.395 11.256,0.01 2.542,-2.72 3.868,-6.055 4.113,-9.732 0.232,-3.49 -1.802,-5.374 -5.275,-5.18"
             style="fill:#f5f5f5;fill-opacity:1;fill-rule:nonzero;stroke:none"
             id="path106" /></g></g></g></g></svg>
