<?xml version="1.0" encoding="UTF-8" standalone="no"?>
<svg
   xmlns:dc="http://purl.org/dc/elements/1.1/"
   xmlns:cc="http://creativecommons.org/ns#"
   xmlns:rdf="http://www.w3.org/1999/02/22-rdf-syntax-ns#"
   xmlns:svg="http://www.w3.org/2000/svg"
   xmlns="http://www.w3.org/2000/svg"
   xmlns:sodipodi="http://sodipodi.sourceforge.net/DTD/sodipodi-0.dtd"
   xmlns:inkscape="http://www.inkscape.org/namespaces/inkscape"
   id="b8061065-12b5-4195-bf1a-bde27c21cc1a"
   data-name="Capa 1"
   viewBox="0 0 434.01 374.43"
   version="1.1"
   sodipodi:docname="mail.svg"
   inkscape:version="1.0.2-2 (e86c870879, 2021-01-15)">
  <metadata
     id="metadata856">
    <rdf:RDF>
      <cc:Work
         rdf:about="">
        <dc:format>image/svg+xml</dc:format>
        <dc:type
           rdf:resource="http://purl.org/dc/dcmitype/StillImage" />
      </cc:Work>
    </rdf:RDF>
  </metadata>
  <defs
     id="defs854" />
  <sodipodi:namedview
     pagecolor="#ffffff"
     bordercolor="#666666"
     borderopacity="1"
     objecttolerance="10"
     gridtolerance="10"
     guidetolerance="10"
     inkscape:pageopacity="0"
     inkscape:pageshadow="2"
     inkscape:window-width="1024"
     inkscape:window-height="745"
     id="namedview852"
     showgrid="false"
     inkscape:zoom="1.0076756"
     inkscape:cx="351.47846"
     inkscape:cy="191.65198"
     inkscape:window-x="-8"
     inkscape:window-y="-8"
     inkscape:window-maximized="1"
     inkscape:current-layer="b8061065-12b5-4195-bf1a-bde27c21cc1a" />
  <title
     id="title847">Sin título-2</title>
  <path
     d="M 363.43692,39.083789 H 78.865619 a 32.83515,36.711645 0 0 0 -32.83515,36.71164 V 296.0653 a 32.83515,36.711645 0 0 0 32.83515,36.71165 H 363.43692 A 32.83515,36.711645 0 0 0 396.27207,296.0653 V 75.795429 A 32.83515,36.711645 0 0 0 363.43692,39.083789 Z M 78.865619,63.558219 H 363.43692 a 10.94505,12.237215 0 0 1 10.94505,12.23721 v 31.663801 c -14.98104,14.14928 -36.39229,33.65234 -103.02028,92.77338 -11.56071,10.24867 -34.3401,34.95255 -50.21042,34.64662 -15.87032,0.30593 -38.71812,-24.39795 -50.21042,-34.64662 A 4694.6055,5248.8475 0 0 1 67.920569,107.45923 V 75.795429 a 10.94505,12.237215 0 0 1 10.94505,-12.23721 z M 363.43692,308.30252 H 78.865619 A 10.94505,12.237215 0 0 1 67.920569,296.0653 V 139.27599 a 8101.3891,9057.8336 0 0 0 89.407381,80.07727 c 14.02334,12.54315 38.78652,40.15336 63.82332,40.0004 24.89999,0.22945 49.45794,-27.15132 63.82332,-40.0004 a 8101.3891,9057.8336 0 0 0 89.40738,-80.07727 V 296.0653 a 10.94505,12.237215 0 0 1 -10.94505,12.23722 z"
     id="path849"
     style="stroke-width:0.72332" />
</svg>
