<?xml version="1.0" encoding="UTF-8" standalone="no"?>
<svg
   xmlns:dc="http://purl.org/dc/elements/1.1/"
   xmlns:cc="http://creativecommons.org/ns#"
   xmlns:rdf="http://www.w3.org/1999/02/22-rdf-syntax-ns#"
   xmlns:svg="http://www.w3.org/2000/svg"
   xmlns="http://www.w3.org/2000/svg"
   xmlns:sodipodi="http://sodipodi.sourceforge.net/DTD/sodipodi-0.dtd"
   xmlns:inkscape="http://www.inkscape.org/namespaces/inkscape"
   id="b8061065-12b5-4195-bf1a-bde27c21cc1a"
   data-name="Capa 1"
   viewBox="0 0 434.01 374.43"
   version="1.1"
   sodipodi:docname="wpp.svg"
   inkscape:version="1.0.2-2 (e86c870879, 2021-01-15)">
  <metadata
     id="metadata11">
    <rdf:RDF>
      <cc:Work
         rdf:about="">
        <dc:format>image/svg+xml</dc:format>
        <dc:type
           rdf:resource="http://purl.org/dc/dcmitype/StillImage" />
      </cc:Work>
    </rdf:RDF>
  </metadata>
  <defs
     id="defs9" />
  <sodipodi:namedview
     pagecolor="#ffffff"
     bordercolor="#666666"
     borderopacity="1"
     objecttolerance="10"
     gridtolerance="10"
     guidetolerance="10"
     inkscape:pageopacity="0"
     inkscape:pageshadow="2"
     inkscape:window-width="1024"
     inkscape:window-height="745"
     id="namedview7"
     showgrid="false"
     inkscape:zoom="1.4315093"
     inkscape:cx="157.11348"
     inkscape:cy="65.352446"
     inkscape:window-x="-8"
     inkscape:window-y="-8"
     inkscape:window-maximized="1"
     inkscape:current-layer="b8061065-12b5-4195-bf1a-bde27c21cc1a" />
  <title
     id="title2">Sin título-2</title>
  <path
     d="M 346.81583,58.320809 C 316.54535,23.917688 276.23288,4.9959703 233.39184,4.9959703 c -88.42737,0 -160.382963,81.5845477 -160.382963,181.8450797 0,32.02768 7.368947,63.31814 21.384396,90.92254 L 71.63623,371.96263 156.6681,346.65175 c 23.40724,14.49845 49.77652,22.11629 76.6515,22.11629 h 0.0723 c 88.35512,0 161.9001,-81.58455 161.9001,-181.84507 0,-48.57394 -18.20563,-94.199042 -48.47611,-128.602161 z M 233.39184,338.13288 c -23.98519,0 -47.46469,-7.29019 -67.9099,-21.05144 l -4.84039,-3.27649 -50.42671,14.98993 13.43749,-55.7822 -3.17876,-5.73385 c -13.36525,-24.08219 -20.37298,-51.85042 -20.37298,-80.43778 0,-83.30469 59.81852,-151.128007 133.36349,-151.128007 35.61659,0 69.06583,15.727141 94.20694,44.314495 25.14111,28.587362 40.60145,66.512712 40.52921,106.895432 0,83.38661 -61.33565,151.20991 -134.80839,151.20991 z m 73.11152,-113.20265 c -3.97345,-2.29355 -23.69622,-13.26978 -27.3807,-14.7442 -3.68447,-1.55633 -6.35752,-2.29354 -9.03057,2.29354 -2.67305,4.58709 -10.33098,14.74419 -12.71504,17.85686 -2.31184,3.03076 -4.6959,3.44031 -8.66935,1.14678 -23.55174,-13.3517 -39.01208,-23.83645 -54.54467,-54.06205 -4.11793,-8.02741 4.11795,-7.45401 11.77587,-24.8194 1.30041,-3.03075 0.6502,-5.65194 -0.36122,-7.94549 -1.01143,-2.29353 -9.03057,-24.65557 -12.35382,-33.74782 -3.25101,-8.84651 -6.57426,-7.61784 -9.03058,-7.78166 -2.31182,-0.16382 -4.98487,-0.16382 -7.65792,-0.16382 -2.67305,0 -7.00773,1.14677 -10.6922,5.65193 -3.68447,4.58709 -14.01545,15.56332 -14.01545,37.92535 0,22.36204 14.37667,43.98685 16.32728,47.01761 2.02285,3.03075 28.24762,48.90157 68.48786,68.64241 25.43009,12.45065 35.39985,13.51551 48.11489,11.38579 7.73017,-1.31059 23.69622,-10.97623 27.01947,-21.62481 3.32326,-10.64859 3.32326,-19.74084 2.31183,-21.62482 -0.93918,-2.04781 -3.61223,-3.19457 -7.58568,-5.4062 z"
     id="path4"
     style="stroke-width:0.769266" />
</svg>
